<svg width="100" height="100" viewBox="0 0 100 100" fill="none" xmlns="http://www.w3.org/2000/svg">
<path d="M47.0832 78.9584H53.3332V58.0209L61.8748 66.5625L66.2498 62.1875L49.9998 46.3542L33.9582 62.3959L38.3332 66.7709L47.0832 58.0209V78.9584ZM22.9165 91.6667C21.2498 91.6667 19.7915 91.0417 18.5415 89.7917C17.2915 88.5417 16.6665 87.0834 16.6665 85.4167V14.5834C16.6665 12.9167 17.2915 11.4584 18.5415 10.2084C19.7915 8.95837 21.2498 8.33337 22.9165 8.33337H60.5207L83.3332 31.1459V85.4167C83.3332 87.0834 82.7082 88.5417 81.4582 89.7917C80.2082 91.0417 78.7498 91.6667 77.0832 91.6667H22.9165ZM57.3957 33.9584V14.5834H22.9165V85.4167H77.0832V33.9584H57.3957Z" fill="#1F1F1F"/>
</svg>
